/* XPM */
static char *_581601981127[] = {
/* columns rows colors chars-per-pixel */
"64 64 256 2 ",
"   c #6A655C",
".  c #888276",
"X  c #8F887E",
"o  c #6A645C",
"O  c #6E6960",
"+  c #7C7769",
"@  c #868074",
"#  c #918A7E",
"$  c #76706B",
"%  c #7A746F",
"&  c #787269",
"*  c #807B6E",
"=  c #837C76",
"-  c #807A6C",
";  c #706A60",
":  c #6D685E",
">  c #8E877E",
",  c #6C665F",
"<  c #847F70",
"1  c #777266",
"2  c #827D6F",
"3  c #6E6A60",
"4  c #746F64",
"5  c #88827A",
"6  c #8A8476",
"7  c #8E867E",
"8  c #746E65",
"9  c #7E7A6C",
"0  c #69645B",
"q  c #7E7968",
"w  c #908980",
"e  c #736D68",
"r  c #827C70",
"t  c #8F887C",
"y  c #857E78",
"u  c #706B62",
"i  c #7D786A",
"p  c #78726D",
"a  c #8C867D",
"s  c #69645C",
"d  c #807A71",
"f  c #7C7671",
"g  c #837E70",
"h  c #827C6D",
"j  c #726D62",
"k  c #868172",
"l  c #756F6A",
"z  c #6A655E",
"x  c #777265",
"c  c #7C776C",
"v  c #827C6C",
"b  c #777366",
"n  c #8E877C",
"m  c #948C81",
"M  c #726D65",
"N  c #867F78",
"B  c #918A80",
"V  c #746E69",
"C  c #7A756B",
"Z  c #6F6960",
"A  c #7F7871",
"S  c #847F6E",
"D  c #8C857A",
"F  c #8B847B",
"G  c #7A7567",
"H  c #6E695F",
"J  c #817C6E",
"K  c #6C665C",
"L  c #7A756C",
"P  c #837D76",
"I  c #767165",
"U  c #8C8679",
"Y  c #898378",
"T  c #898278",
"R  c #868076",
"E  c #858073",
"W  c #837D72",
"Q  c #726C62",
"!  c #7E796C",
"~  c #7B766B",
"^  c #736E64",
"/  c #706C62",
"(  c #716B61",
")  c #8C8578",
"_  c #878174",
"`  c #847E77",
"'  c #847F74",
"]  c #746F63",
"[  c #6D685F",
"{  c #7F7A6D",
"}  c #757069",
"|  c #6C675D",
" . c #6B675D",
".. c #847F6D",
"X. c #68635B",
"o. c #817C6A",
"O. c #807B6A",
"+. c #7A7470",
"@. c #7F7873",
"#. c #78726E",
"$. c #817D6B",
"%. c #7D7968",
"&. c #807C6A",
"*. c #968E84",
"=. c #958E83",
"-. c #827E6C",
";. c #7C7867",
":. c #837F6D",
">. c #837E6C",
",. c #827D6B",
"<. c #77716D",
"1. c #7C7868",
"2. c #938C82",
"3. c #7F7A69",
"4. c #6E6862",
"5. c #726C67",
"6. c #948D83",
"7. c #7B7570",
"8. c #6F6963",
"9. c #716B65",
"0. c #7D7772",
"q. c #7E7A68",
"w. c #817B75",
"e. c #7B7768",
"r. c #706A64",
"t. c #7B7667",
"y. c #7F7A6B",
"u. c #8A847C",
"i. c #7D7867",
"p. c #8B847C",
"a. c #7B7767",
"s. c #958D83",
"d. c #7F7974",
"f. c #8A837B",
"g. c #6D6761",
"h. c #7E7873",
"j. c #6C6660",
"k. c #928B81",
"l. c #948D82",
"z. c #7F7B69",
"x. c #8C857D",
"c. c #76706C",
"v. c #847F72",
"b. c #878079",
"n. c #7A7667",
"m. c #807B6B",
"M. c #807A74",
"N. c #7D7969",
"B. c #827B75",
"V. c #6E6963",
"C. c #8B8578",
"Z. c #726C66",
"A. c #716B66",
"S. c #68635A",
"D. c #807974",
"F. c #817C6D",
"G. c #7E7A6A",
"H. c #716C66",
"J. c #797467",
"K. c #7E796A",
"L. c #8D867E",
"P. c #706B65",
"I. c #8B8579",
"U. c #69635C",
"Y. c #787466",
"T. c #7B7668",
"R. c #868079",
"E. c #807C6C",
"W. c #7B7571",
"Q. c #88817A",
"!. c #77716C",
"~. c #8A8478",
"^. c #938B82",
"/. c #797566",
"(. c #6C6760",
"). c #857F73",
"_. c #928A81",
"`. c #7C7869",
"'. c #938C80",
"]. c #938C81",
"[. c #7A7668",
"{. c #8A8479",
"}. c #8C867B",
"|. c #7D7868",
" X c #827D6D",
".X c #7C7767",
"XX c #948C82",
"oX c #8D877B",
"OX c #7E7772",
"+X c #858074",
"@X c #837D74",
"#X c #767166",
"$X c #797466",
"%X c #6D675F",
"&X c #857F72",
"*X c #736D67",
"=X c #928B80",
"-X c #8D877A",
";X c #938D81",
":X c #878179",
">X c #68625A",
",X c #837E6E",
"<X c #817C70",
"1X c #787465",
"2X c #777268",
"3X c #868071",
"4X c #948C83",
"5X c #7E7A69",
"6X c #7D786C",
"7X c #7E786E",
"8X c #6E6962",
"9X c #797567",
"0X c #837E74",
"qX c #7B7666",
"wX c #6F6A64",
"eX c #8B8478",
"rX c #858071",
"tX c #888275",
"yX c #787467",
"uX c #847E72",
"iX c #847E73",
"pX c #938B80",
"aX c #726D67",
"sX c #817C6C",
"dX c #7F7B6C",
"fX c #8C867A",
"gX c #8D867B",
"hX c #948E82",
"jX c #928C80",
"kX c #958F83",
"lX c #898376",
"zX c #6F6B61",
"xX c #767168",
"cX c #8E877B",
"vX c #958D82",
"bX c #79746C",
"nX c #7B766D",
"mX c #6F6962",
"MX c #716B63",
"NX c #7A7666",
"BX c #706B60",
"VX c #807C6B",
"CX c #8B8479",
"ZX c #928A7F",
"AX c #716C64",
"SX c #827E6D",
"DX c #807A6B",
"FX c #817B74",
"GX c #8B857C",
"HX c #858078",
"JX c #888273",
"KX c #807B6D",
"LX c #67625A",
"PX c #968F84",
"IX c #7D7967",
"UX c #79736F",
/* pixels */
"UXUXUXUXUXUXUXUXUXUX#.l 9.mX7XeXw +.UXUXUXUXUXUXUXUXg.LX0 * PXk.W.UXUXUXUXUXUXUXUXUXUXUXUXUXUXUXUXUXp bXA iX2XP.r.5.l c.UXUXUXUX",
"V.Z.5.e $ $ l A.4.  LXLXj { w.AXg a UXUXUXUXUXUXUXV LX0 e.].6.h.UXUXUXUXUXUXUXUXUXUXUXUXUXUXUXUXl M C A bXPXjX< i 1 Z LXLXs z 4.",
"LXLXLXLXLXLXLXLXLXLXK n.{ a UX8.I F.5 UXUXUXUXUX#.s o e.g *.M.UXUXUXUXUXUXUXUXUXUXUXUXUXUXUX*X, I * p.5.#Xs.PXPX=.lXG.%.G ^ K LX",
"1 u S.LXLXLXLXLXX.I IXm.XXf UXA.X.;.m.` UXUXUXUX8.  e.%.vXP UXUXUXUXUXUXUXUXUXUXUXUXUXp 9.s : t.W 2.7.8.1 X PXPXPXPXPXt KXIXIX;.",
"IXIXIXG 4 | LXBX;.IXE.=.N UXUXe LXj IXG.FXUXUXl , + IX&X5 UXUXUXUXUXUXUXUXUXUXUXUX$ 8XX.LX] i.' PXw.UXz I :XPXPX*.PXPXPXPX].v.q ",
"lXm.z.IXIXIXIXIXIXF.=.w UXUXUX$ LXLXa.O.N.A UXmX+ IX%.GXUXUXUXUXUXUXUXUXUXUXUXV j.LXLX  G IX_ PXf.UXUXX.^ d PXPXUXh.y p.B PXPXPX",
"x.^.cXr $.&.q.IXg =.*.h.UXUXUXp LXLXZ IXo.%.& 1.IXIXuX% UXUXUXUXUXUXUXUX#.H.  LXLXLX( i.%.T PX_.+.UX$ LXBXi PXPXUXUXUXUXUX+.M.R.",
"UXUXW.B.HX* dX3X=.PX5 UXUXUXUXUXX.LXLX/.z.o.IXIXIX&.$ 9.V.V.V.j.z z z LXLXLXLXLXX.b IX%.F PX*.d.UXUXZ.LX: 1.k.*.UXUXUXUXUXUXUXUX",
"UXUXUXc.H.^ e.-XPX^.+.UXUXUXUXUXz LXLXK IX$.$.3.$.:.IXe.1 ( U.LXLXLXLXLXLXLXLXH ;.IX%.}.PX=.N UXUXUX8XLX  IXF 6.UXUXUXUXUXUXUXUX",
"H.g.s H n.IXIX_ PXL.UXUXUXUXUX#.s LXLX^ < dX-.......&.IXIXIXIXe.1 ( X.LXLXS.4 IXIX%.> PXx.f UXUXUXUXz LXX.IXW 6.UXUXUXUXUXUXUXc.",
"LX: G IXIXIX3.< PXp.UXUXUXUXUX4.LXLXQ rXPXPXPX# _ g $.>.,.&.3.IXIXIXIXT.1 t.IXIX%.w w d.UXUXUXUXl 9.>XLXLXIX! 6.UXUXUXUXV g.s LX",
"/.IXIXIX3.$...2 PX5 UXUXUXUXe LXLX^ q =.PXPXPXPXPXPXPXm Y g sX-.,.&.3.IXIXIXIXm.X P UXUX<.5.4.U.LXLXLXLXLXa.`.6.UXUXUXV X.LXLX%X",
"IXIXq.sXv >...-.PX:XUXUXUX<.X.LX4 IXC.PXPXx.u.u.u.u.u.u.L.w w X R <X&.>.,.&. XN UXV wX  LXLXLXLXLXLXLX   .NXIXgXUXUXV X.LX: 9XIX",
"< gXf.% 1 IX>.:.'.N UXUXUX, LXx IXm.PX=.P UXUXUXUXUXUXUXUXUXUXUX} + IXIX:.>.~ M j 4 4 b b $Xt.t.;.IXIXIXIXIXIX0XUXe X.[ J.IXIX5X",
"*.y UXUXu IXo...oX= UXUX9.LXY.IXIXZX2.d.UXUXUXUXUXUXUXUXUX#.H.#XIXIXIX-.W C PX# I.@ 2 dXq IXIXIXIXIXIXIXq.q.$.* e O T.G.uXD hXPX",
"D.UXUXUXS.IXz...tXw.UXl 0 G IXIX&Xw f UXUXUXUXUXUXUXUX#.9.[ t.IXIXIX,X` $ ; . PXPXPXPXPXPXPX].D _ uX2 F.-.....O.).fXl.PXPXPXPX2.",
"UXUXUXUXLXn.IX..g @.#., t.IXIXm.p.% UXUXUXUXUXUXUX#.r.X.4 IXIXIXm.-XP UX4.H N.=.PXPXPX*.w > u.R.y @.0.UX4 O.-.>.W PXPXPXPXPXw f ",
"UXUXUXUXLX] IX-.F.0.u e.IXIX&.7X$ UXUXUXUXUXUX<.8.X.| T.IXIXIX3Xl.= UX!.>X, IX_ PXPX+.UXUXUXUXUXUXUXUXUXV BXIX-.O.> PXPXPXPXD.UX",
"UXUXUXUXLX: IXo. X& 1.IXIX&...O.[.u z 4.9.V V.X.LX4 IXIXIXF.# =.w.UXUX8.LX  IX5X=.PX+.UXUXUXUXUXUXUXUXUX#.X.BXIX-.N.*.PXPXw UXUX",
"UXUXUX<.LX  IX3.:.|.IXIXo.....-.IXIX1.4 X.LXLXK [.IXIX%.6 PX6.D.UXUXp X.LX0 IXq ).PX7.UXUXUXUXUXUXUXUXUXUXj.LXBXIXo.W PXPXp.UXUX",
"UXUXUX8.LX1XIXq  Xo.IXo.# =XfXY Y v.g * y.b 4 IXIXIXg l.PX6.@.UXUXUXr.LXLXX.IXq VXl.7.UXUXUXUXUXUXUXUXUXUX9.LXLXBXIXO.> PX^.UXUX",
"UXUXp X.j IXIXr + IX>.6 PXPXPXPXPXB u.P 0.p [.IXIXC.PXPX2.h.UXUXUX#.X.LXLXX.IXq >.< f UXUXUXUXUXUXUXUXUXUX$ LXLXLX; IXN.*.PXh.UX",
"UXUXr.: IX%.T l 1.IX$.l.PX2.:Xw.+.UXUXUXUXc.I IX,.-XPX6.0.UXUXUXUXA.LXLXLXLXIXq ..&.L !.$ $ $ e 5.5.5.5.5.5.X.LXLXLXBXIXg PXb.UX",
"UX#.  .XN.X 0.r.IXIXJXPX*.D.UXUXUXUXUXUXUXl K IXO.-XPXx.UXUXUXUXc.X.LXLX0 /.IXIX..:.IXIXa.1 Q   LXLXLXLXLXLXLXLXLXLXLXBXi.oXX UX",
"UXZ.1X{ XXw.p ( IXIX'.PXN UXUXUXUXUXUXUXUXV LX+ q ) PXN UXUXUX#.  LXLX| .XIXIXO...:.,.z.q IXIXIX;.J.4 [ LXLXLXLXLXLXLXLX; `.=.7.",
"UX4 2 PXR.UXA.I IXg PXx.UXUXUXUXUXUXUXUXUX5.LX1 IX6 PXd.UXUXUX(.LXLXQ IXIXIX&.rXjX# '.t Y E g E.K.IXIXIXIX[.1 ( s LXLXLXLX; r P ",
"$ _ PXx.UXUX  J.IX=X_.+.UXUXUXUXUXUXUXUXUX9.LX3 IXlX=.UXUXUXr.LXLXx IXIXIX$.tXPXPX6 Y PXPXPXPXPXPXPX;XoXlXv.J y.N.`.b 8 g.X.; @X",
"n PXB +.UXl LX1.J s.h.UXUXUXUXUXUXUXUXUXUX8.LXLXi._ X UXUXe LX  n.IXIXz.-.~.PXPXPXPXg ).PXPXPXPXPXPXPXPXPXPXPXPXPXPXl.Y iX@XnXbX",
"PX6.0.UXUX4.  IX# P UXUXUXUXUXUXUXUXUXUXUX4.LXLX$XE Q.UX$ X.H ;.IXIXO...n PXPX*.> PX=.G.W PXPX*.B.@.@.@.h.UXUXUXUXUXUXUXUXUX!.xX",
"PXQ.UXUX#.X.u KXf.UXUXUXUXUXUXUXUXUXUXUX<., LXLXj v.w.#.  ^ IXIXIXo.S # PXPX_.d.UX:XPX=X%.* *.PX> UXUXUXUXUXUXUXUXUXUXUXUX<.[ ~ ",
"*.0.UXUXZ.LX#X{.% UXUXUXUXUXUX<.V P.g.s LXLXLXLX0 2 7.[ Y.IXIXIX$.< l.PXPX5 +.UXUXUXb.PXI.IX9 hXPX` UXUXUXUXUXUXUXUXUXUXp z J.L ",
"> UXUXUXz LX6Xf UXUX<.V r.g.s LXLXLXLXLXLXLXLXLXLX6XM a.IXIXO.>.k kXPXk.M.UXUXUXUXUXUXb.PX< z.K.^.s.0.UXUXUXUXUXUXUXUX#.z O IX% ",
"= UXUX$ LXX.~ } M zXZ Z Z Z :  . . . . . . . . . .] i.IXIX&...lXPXPXp.+.UXUXUXUXUXUXUXUXR.PXy.O.N.w X UXUXUXUXUXUXUX#., LXt.%.UX",
"% UXUX8.LX& s.w ~.).* K.%.IXIXIXIXIXIXIXIXIXIXIXIXIXIXIXo...-XPX4X= UXUXUXUXUXUXUXUXUXUXUXR.].%.&.%.n N UXUXUXUXUXc., LX/ IX+ UX",
"UXUX#.U.4 <XPXPXPXPXPXPXPX2.D +X<X{ K.q.q.q.q.q.q.q.O.-.S # PXL.W.UXUXUXUXUXUXUXUXUXUXUXUXUXN }.IXo.%.{.OXUXUX#.r.X.S.; ;.IXc UX",
"UXUXe ( IXw PX5 UXUXUX0.@.@.@.@.@.@.B.P A & O.>.......,Xm 6.P UXUXUXUXUXUXUXUXUXUXUXUXUXUXUXUXN E IXo.IX0XUXV [ 4 9XIXIXIXIX7.UX",
"UXUXu IXy.PXk.+.UXUXUXUXUXUXUXUXUXUXUXUXUXA.[ ;.$.....>.}.b.UXUXUXUXUXUXUXUXUXUXUXUXUXUXUXUXUXUXy { O.$.IX+ 1.IXIXIXIXIXz.v 7.UX",
"d.& ;.IXY PXw.UXUXUXUXUXUXUXUXUXUXUXUXUXUXr.LX| ;.$.....N.p.UXUXUXUXUXUXUXUXUXUXUXUXUXUXUXUXUXUXUXP N.&.,.IXIXIXq O.,.3Xt y T.~ ",
"|.1.IX%.PXp.UXUXUXUXUXUXUXUXUXUXUXUXUXUXUX8.LXLXo t.o...$.! % UXUXUXUXUXUXUXUXUXUXUXUXUXUXUXUXUXUXUXd %.o...$.>.< C.l.PXf.UX^ IX",
"3.IXIX@ 2.7.UXUXUXUXUXUXUXUXUXUXUXUXUXUXUXj.LXLXLX  IXo...&.+ & *X$ UXUXUXUXUXUXUXUXUXUXUXUXUXUXUXUXUX& IX-.....=XPXPX7 UXUXZ.n.",
"IX$.>.m = UXUXUXUXUXUXUXUXUXUXUXUXUXUX<., LXLXLX0 a.IXIX....O.IXIXY.: z 4.H.l #.UXUXUXUXUXUXUXUX$ wX%X1.IXO.....J PXs.7.UXUX$ Z ",
"+ 3.S =.B.UXUXUXUXUXUXUXUXUXUXUXUXUX$ s LXLXLX0 a.IXIXo.......-.O.IXIXa.4 s LXLXo g.P.V <.<.P.  LXH 1.IXIX-.....o.w PXf UXUXUXs ",
"zXIX$.y.=X% UXUXUXUXUXUXUXUXUXUXUXaXX.LXLXLX0 a.IXIXo.k ,XSX:.....:.$.3.IXIXyX3 LXLXLXLXLXLXLXLX; i.IX%._ '.G.o...* PX= UXUXUX4.",
"LX[ G &.m.b.UXUXUXUXUXUXUX<.5.g.X.LXLXLXLX0 qXIXIXo.6 PXPXPXl.# eX_ < 2 -.O.IXIX.X4   LXLXLXLXQ IXy.6 PXPXPXoXIX$.o.X f.UXUXUXe ",
"LXLXLXO T.* 0.UXUXUXl r.z LXLXLXLXLXLXLX0 qXIXIX&.lXPXPXPXPXPXPXPXPXPXPXPXl.X . v.KXN.G zXLX^ J w PXPXPXPXPXPX2 3...{ w UXUXUX<.",
"LXLXLXLXLXZ bXe 9.zXZ Z Q j ^ 4 b b b Y.;.IXIX&.tXPXs.5 @.@.@.@.@.@.@.@.@.@.@.@.@.@.@.@.% C s.PXPXPXPXPX> 7 PXs.N.&.o.gX+.UXUX4.",
"LXLX  Q 1 e.tXpXCX@ 2 y.%.IXIXIXIXIXIXIXIXIX&.E 6.Q.7.UXUXUXUXUXUXUXUXUXUXUXUXUXUXUXUXP.x gXPXPXPXw N f UXUXOXp.gXIX$.! M.#.g.LX",
"$X;.IXIXIXtXPX2.w w w w w X D _ 3Xg  X$.,.:.v.b.7.UXUXUXUXUXUXUXUXUXUXUXUXUXUXUXUXl   Y.y.PXPXX OXUXUXUXUXUXUXUXf 6XIXo.0.j.X.j.",
"IXIXIXq @ PXPXf.UXUXUXUXUXUXUXUXUXUX!.V 2X&X<XV c.UXUXUXUXUXUXUXUXUXUXUXUXUXUX#.4.S./.IXD PXk.7.UXUXUXUXUXUXUXUX#.J.IXo.KXi IXIX",
"E.,.:...- *.PX> UXUXUXUXUX$ aX8., X.j i U PX=.).G u g.A.$ UXUXUXUXUXUXUXUXUX*XU.X.n.IXK.PX4X0.UXUXUXUXUXUXUXUXUX8.i.IX XPXPXw r ",
"PXI.3.$.,.* PXB UXUXUXUXV.LXLX, 1 |.F.;XPX2.> PXX q e.^ 0 X.g.9.l UXUXUXc.j.LX0 t.IXIXI.*.M.UXUXUXUXUXUXUXUXUXV ; IXIXI.PXPXPXPX",
"PXPXD IX$.O.+Xs.UXUX#., X.j t.IX%.C.PXPXB f UXd.> PXv.IXi.b K LXLXX.(.4.X.LX  a.IXIXE.PXP UXUXUXUXUXUXUXUXUX#.s b IXDXPXPXPXPXPX",
"x.PXPX~.IX,.O.D W.$ ; b IXIXIXE.;XPXPXL.+.UXUXUXUXD.X t N.IXIXG u LXLXLXLXK ;.IXIX&.I.Q.UXUXUXUXUXUXUXUXUXUX4.LX1.IXD PXPXPXPX> ",
"UXN *.PXY IX,.%.c ;.IXIXIX%.C.PXPXPX5 UXUXUXUXUXUXUXUXw.X W O.q IX+ 4 s  .;.IXIXo.,Xx.UXUXUXUXUXUXUXUXUXUXe LX; IXG.PXPXPXPX> +.",
"UXUXD.2.PX. IX$.IXIXIX3.g m PXPX*.P UXUXUXUXUXUXUXUXUXUXUXB.Y N.o.3.IXIXi.IXIXo...+X% UXUXUXUXUXUXUXUXUX<.U.LXb IXD PXPXPX> +.UX",
"UXUXUXf X PX@ O.>.o.:.~.PXPXPX2.d.UXUXUXUXUXUXUXUXUXUXUXUXUXUXB.{ O.>.&.IXIXo...>.+.UXUXUXUXUXUXUXUXUXUX(.LXLX1.y.PXPXPX> +.UXUX",
"UXUXUXUX% f.PXE O.>.< PXPXPXk.f UXUXUXUXUXUXUXUXUXUXUXUXUXUXUXUX#.+ IX:.:.:.....:.G 4.r.l UXUXUXUXUXUXZ.LXLXO IXoXPXPX> +.UXUXUX",
"UXUXUXUXUXUXP =.< O.-.I.PXPXw UXUXUXUXUXUXUXUXUXUXUXUXUXUXUXUXUXAXIXIX,...:.:.....O.;.u LXX.(.9.l UX!.X.LXLX1 y.PXPX> +.UXUXUXUX",
"UXUXUXUXUXUXUXh.k.g O.m.PXPX*.7.UXUXUXUXUXUXUXUXUXUXUXUXUXUXUX9.yXIXIXS pXm ).- >...&.IXb S.LXLXLXX.s LXLXLX1.n PX> +.UXUXUXUXUX",
"UXUXUXUXUXUXUXUX+.L.2 O.C.PXPXB.UXUXUXUXUXUXUXUXUXUXUXUXUXUXV K IXIXh XXPXPXPXPXD * $.,.z.e.[ LXLXLXLXLXLXO dXPX> +.UXUXUXUXUXUX",
"UXUXUXUXUXUXUXUXUXUXb.J m.PXPX5 UXUXUXUXUXUXUXUXUXUXUXUXUX$ X.b IXm.=.PXPXPXPXPXPXPXjXv.m.&.IX4 LXLXLXLXLX1 X > +.UXUXUXUXUXUXUX",
"UXUXUXUXUXUXUXUXUXUXUXw.m.C.PXX UXUXUXUXUXUXUXUXUXUXUXUXp     IX2 PXPXPXB u.X 6.PXPXPXPXPX{.KXIXn.  LXLXLX* > +.UXUXUXUXUXUXUXUX",
"UXUXUXUXUXUXUXUXUXUXUXUXf g PX*.+.UXUXUXUXUXUXUXUXUXUXUXj.LXI v.PXPXk.P UXUXUXUXf M.y u.X 2.PX_.g `./ LX[ Y +.UXUXUXUXUXUXUXUXUX",
"UXUXUXUXUXUXUXUXUXUXUXUXUX% X PXM.UXUXUXUXUXUXUXUXUXUX8.LX0 _ PX2.y % UXUXUXUXUXUXUXUXUXUXUX7.d.y f.@X& & +.UXUXUXUXUXUXUXUXUXUX"
};
