/* XPM */
static char *_581602007080[] = {
/* columns rows colors chars-per-pixel */
"64 64 79 1 ",
"  c #08090A",
". c #09090A",
"X c #08090B",
"o c #090A0A",
"O c gray4",
"+ c #0A0A0B",
"@ c #0A0B0B",
"# c #0B0B0B",
"$ c #090B0C",
"% c #0B0C0C",
"& c #0C0C0C",
"* c #0C0D0D",
"= c gray5",
"- c #0E0E0E",
"; c #0D0E10",
": c #0D0F10",
"> c #0E0F11",
", c #0E1011",
"< c #0F1112",
"1 c #0F1113",
"2 c #111111",
"3 c #111112",
"4 c #111212",
"5 c gray7",
"6 c #121213",
"7 c #101214",
"8 c #111214",
"9 c #131414",
"0 c #121416",
"q c #131517",
"w c gray8",
"e c #141515",
"r c #151515",
"t c #151516",
"y c #141517",
"u c #141617",
"i c #161616",
"p c #161717",
"a c gray9",
"s c #161618",
"d c #161719",
"f c #17191A",
"g c #181819",
"h c #191919",
"j c #181A1B",
"k c gray10",
"l c gray11",
"z c #1C1C1D",
"x c #1D1D1D",
"c c #1D1E1E",
"v c #1E1E1E",
"b c gray12",
"n c #1F1F20",
"m c #1F2020",
"M c #1F2021",
"N c #202020",
"B c #202121",
"V c gray13",
"C c #212122",
"Z c #222222",
"A c #232323",
"S c #232324",
"D c #232424",
"F c gray14",
"G c #252525",
"H c #252626",
"J c #272727",
"K c #272728",
"L c #272828",
"P c #282828",
"I c gray16",
"U c #29292A",
"Y c #292A2A",
"T c gray17",
"R c #2B2C2C",
"E c #2C2C2C",
"W c #2D2D2D",
"Q c #2D2D2E",
"! c gray18",
/* pixels */
"@@@@@4J!!BAAAAAB66qqq6qy66qy4O&X+X+6Q!!GDv@@4s0si0ii0ipf0if6,@@O",
"@@@@b!!!!AAAAAAAj61qqs6qqyq6XXXXXX&KQ!PGDB-@@-4i0f0siii0si4o%@O@",
"@@4P!!!!GAAb4vAAMq;6q6qqq6y>X@XOX@z!!!SBBGBv;@@-0ifi6fsi0,@@@@@-",
"%B!!!!PGAAviO-AASnq66qqqqy6X@X&XX2!!!Gh4sBGD!B-@+-00fip,%%@@@@@@",
"P!!!!GAAbaa5-OlGSns66q6qqq>XXXXX%P!QKB0111fBDL!M-@@-60-@&ooo@   ",
"!!!PGGBhaa5aa--ESSv666qq11X&++X&j!!QGh160101hMDGWM-&@@@%o&o&@X@x",
"!!GBBAvi5aaaa4@lKKSq6qqs6&XX+XX>!!QPM11q00010,jDBPWb-o++ooooo5P!",
"PGBGGABiaaaaaaOOKSSn166y>XXX+XXN!!PSj01q0000,0;%hFBPPv%ooo&oB!!!",
"AAAAAAAh5aaaaa5OiJAAa46;X+X+@@s!!!GM16q000001q%X@&zBGK!n-opY!!!!",
"AAAAAAAvaaaaaaa-@PAAN54@%X+X @!!!PBs10qq0000q,X%XX@4SMSKYL!!!!PD",
"AAAAAAAB45aaaaaaO5!BGg-XX@+X v!!QDv61q0000001%oXXX@jGGGMDL!!!GDD",
"sst44gAAhaaaaaaa-OBGBN@X@XX 4!!!GDq110000000%oX@@X-P!!vqipffiipf",
"466+ @vAbaaaaaaaaO-EDG5oXXX@G!!JBv16qq0000q1%XXX @v!!Q016666,666",
"666;  AKb4aaaaaai4OvGBmoXXog!!!GG6160000001;X+%X -!!!S6600000060",
"qqy1@ l!Aa5aaaaa-&o&PGG0XX-!!!JSs%1q0000001X%%XX@B!!Lz60006sqqq0",
"66y6-OO!Jlaaah-O&&o&hPmv@XD!!!AG,+X%1q0000;XXXXX4!!EGq6000q006i0",
"qqqq;XXKKBaa5OOO-OO&OPAAis!!!GGBGf-%X;604-X@@@XXG!!KS66qqq1yyyqy",
"qqy6;XXz!AaOOOO-OO&OO5WABB!!PBBGBDLM%++%4@@XXXXt!!!Gj6qq6qyy6y1y",
"qq6q4XX2!J4@-O-O-@XO5A!AGSP!SSSBGBSGQf++@XX@@X@K!!KSq66yqqq1y1yy",
"q6qqt@XXJJv@OOOO@@Ob!!!EBDDj4hvSAGDDGL!jXX XXXs!!!BN66q6>sqqyyy1",
"q6q66;+Xb!B-@@@OObE!!WEJSBn11101hMSSSSDLKh&+@@K!!GGj66qqyyy8y1yy",
"6sqqs;+ 4!Gi@-OhE!!!!EAASS06qq11460fnSSSSPT6@g!!!GNs66qq88yyyyy8",
"qqq6+X+X-JJv@4J!!!!EJAAADs11q1qq01416qhvSSSLG!!!GAN66s6qyy8yyyy8",
"qq;+++XXObEBvJ!!!EAAAAAAj11qqq1q00001,4@-sBBGE!EBGz4qqq6y8yy88yy",
"6;+XX%XXXi!DBG!!JAAABGBn61qqqqqq0000016+XXXjSBGGSS666yy6y8y8yyy8",
"++;++X@XX%!LGBPBAAAAGMB066q11q1q0000006X+ XvGSAASS1+6q6tyyy8y8y8",
"+;6X%X+%h!!PDSfjAAAASSq11qqqqqq10000q61%@ @G!JAABGSs+>1y8yyyyy>X",
"1qq+XX+G!!!!Gj,0AAAASjq1qqq11qqq0000qqqX@ @G!KAhSBSSS;&t8y8y8&XX",
"q0q;X6LQ!!TGM%%1AENSbt1qq1qqq1qq0000001+   S!JBisvBSASaO1q1>XX+8",
"0616nQLQ!PDDs%X;AESb6;1qqq1qqq1q000000qX@  K!JAiiiivAASb+2++XX88",
"61sY!L%LGBFh1,+Xa!Ja6qqqqqqqqqqq00000q1X  OJ!JAi4iiitNNGS>XX+>t3",
"6nQQK++sGDv410+XO!b5>q1q1q1q1q1q00000q1X@@&K!JBiaii4&&sNSKsX>t38",
"KQ!L-XX4QKq>54@X+SLq6100000000000000001%@  P!KSii4-OOOOOgAJbt45i",
"QQPq,XX%QLj6t@XXXhQj1100000000000000001X   G!GBi-@O&&OOOO-vAAhjK",
"QPq60@XXGTj6;XX@X%QLqq0q000000000000000X@ @K!KG&&O&OOOOOO-BAGG!!",
"Lq64i%XXnTS;X@@XXXLPM11000000000000000,+@ @E!GB+O&O&@O-ObE!EGSG!",
"q6qq0,+Xq!D; @@@X+n!Dj610q006qqq00001;%X@  !!GB@&@OOOOgE!!!!KGSN",
"+%1606+++!Ls  XXX,!!DSj6>q00qqq601%X%XX+   P!GA-@@OO5K!!!!KGGBbO",
"XX++%%+X+G!v@ XX-L!!KSM11q0066-@X%@X@X%X@ @!!GAOXO-A!!!J!GGBSN@@",
"XXX+X++XXh!G@XX@D!!TKDDn11>;@@@XXXX%X+XX @@!!GAOOzE!!!baajNSNg>@",
"Sj4%o%XX -!J5O&h!!!GGGAAa@XX@XX@%X@X@  ++4v!!AA4v!!!Ghi0t46nnMSS",
"!!!!Bh-X X!Jg@5!!!PBGBAAB&XXX@@@XXXX@O6NT!!!!GAAD!!fi000ttiqsvGG",
"MGGP!!!LbaAEBOG!!LMhbBAABb@@XXX@X@%fF!!!!!!!PGGBDMi00iisyssq4iiv",
"ivGMSGKL!!!!GBG!!MhiivAASS4@XXX-fL!!!!!!!PDSAAABsi0ip0p0g66si000",
"06shMDBGAJJEJAAWvaa4iihBAABijSP!!!!!!!PGBGAAAAh0000ipisiififii00",
"ii6@4hGBAAAAAAba55aaii54bAAAPQQQ!!PJGBAAGBAABii0iiii0i0f00i00ssi",
"iii@@@4BAAAAAlawaaaaaai@OgSGG!QPLBGAAAAAAABh0000p00s0f0iiifii0is",
"sqi@@@%vAAABa45aaaaaaa4@@&5BSBSSBGBGAAAAAvi00iiiih0isisf0s0siif0",
"iiq%@@ BEAAhi5ahaaaaaa-O&OO-GSB6sjjvvFBDD000f06isi0ffi0s0f0fiis0",
"qss;@@@B!JBvtifiaaaaaa&OO&OaPGN6116;oo-:xi0ii0ji0fii0spi0isi0pif",
"0si;%@%M!JAAi5hiaaaaa4O&OOOSQ!n>001;o@XXgi0is00fsi0fpi0sp0fpif0p",
"fii;o%ov!JAAhi4haaaaa-OOOO-!QKj2600+@@XXFp00ifif0i0i0ifiisi000si",
"i0s,@@+v!PAAv4ihaaaa5&O&OOa!!Ji41q0+X@X@!j0pi0s0fifi0s0pifipp0fi",
"ifi,@@+jWPAAvi5iaaaa5O&OOOJ!!Gt4qq0+@XX@!h0pj6isf00ssiif00s0isp0",
"si04@@@h!PAAGO@OO&O&O&O&O-!!!bO@;,,XX@op!h0iiif0ifii00p0pifip0is",
"0fi,@@@iEWGBFiOO&O&O&O&OOv!!Jb@@X%X+@@@h!v00f0isi00ifiis0s0siif0",
"j6i4@@@i!EAAAl@ %+%@@@OO-P!!Gh%+XXXXXXXz!n0iiiiisiifp00sfifi0s0f",
"isi4@@@iEEAAAbOO++X@X@&O4!!PGh4;XXX@XXoD!vi0s00i0p00iifip00spi0i",
"0ii4@@@4!EAAAAVA!KPKGGAAP!!GMGBG!KDvp5oW!B4iisiffiiss00pifii0ipi",
"isi4@@@4!EAAAAFFE!!!!!!!!!!BDDGGTQ!!!!!!!Mi0s0s0p0p0ififs00ppf0s",
"qj,%@@@-!WAAAABbSGGKKKKKGPGGDBGBBGBGLPY!!B0i0isiifi0i0p0iif0ifi0",
"0%++@@@@!!AAAAlw1061660qasssfhsiihhihBFFBv0ipf0ps0ipf0is0f0ss0ip",
"@@%+@@&O!!AAAGb516666166616661@Xo+@X&BDDDv0iisi0ips0isf0f0iiiis,",
"@@@%@@@O!!AAABFh0600qq0qqq664+XX@+@ovPFFBv40f0f0s0ifp0isii0fq0%o"
};
