/* XPM */
static char *_581602034147[] = {
/* columns rows colors chars-per-pixel */
"64 64 256 2 ",
"   c #2E2F34",
".  c #7E1C1C",
"X  c #A02424",
"o  c #652B2D",
"O  c #A82727",
"+  c #303236",
"@  c #2F3035",
"#  c #4A2325",
"$  c #561516",
"%  c #611616",
"&  c #131314",
"*  c #18181B",
"=  c #323538",
"-  c #141416",
";  c #240D0E",
":  c #9E2424",
">  c #6A1D1E",
",  c #7A1B1B",
"<  c #303036",
"1  c #A22525",
"2  c #A72626",
"3  c #62272A",
"4  c #27292C",
"5  c #401F22",
"6  c #5B2022",
"7  c #591414",
"8  c #2A2B30",
"9  c #7A3335",
"0  c #511717",
"q  c #851E1E",
"w  c #321719",
"e  c #731F20",
"r  c #161619",
"t  c #3B1A1C",
"y  c #3A0E0E",
"u  c #651C1D",
"i  c #6B1818",
"p  c #8B1F1F",
"a  c #5B1C1E",
"s  c #333239",
"d  c #2B1011",
"f  c #1D0D0E",
"g  c #641717",
"h  c #902020",
"j  c #9D2424",
"k  c #8C1F1F",
"l  c #501212",
"z  c #762E32",
"x  c #36353C",
"c  c #351010",
"v  c #551819",
"b  c #9D2323",
"n  c #281D21",
"m  c #391010",
"M  c #242429",
"N  c #26262B",
"B  c #27272C",
"V  c #3A3A40",
"C  c #801E1E",
"Z  c #151011",
"A  c #531313",
"S  c #1A1011",
"D  c #2A2024",
"F  c #8E1E1E",
"G  c #0D0D0E",
"H  c #AA2727",
"J  c #3B3C41",
"K  c #18181C",
"L  c #763234",
"P  c #383A3F",
"I  c #251A1E",
"U  c #371A1D",
"Y  c #2B1B1F",
"T  c #313437",
"R  c #140D0E",
"E  c #4C1212",
"W  c #2E3133",
"Q  c #922020",
"!  c #2D0F0F",
"~  c #351517",
"^  c #451010",
"/  c #221011",
"(  c #471415",
")  c #350F0F",
"_  c #34373A",
"`  c #5A1E20",
"'  c #2B2D30",
"]  c #881C1C",
"[  c #4A191A",
"{  c #261011",
"}  c #2A2C2F",
"|  c #2D2F33",
" . c #29292F",
".. c #6E2729",
"X. c #771A1A",
"o. c #6C1919",
"O. c #311011",
"+. c #962121",
"@. c #942020",
"#. c #4E1616",
"$. c #3E1010",
"%. c #25252A",
"&. c #37383E",
"*. c #841D1D",
"=. c #211314",
"-. c #942222",
";. c #3A1415",
":. c #400E0E",
">. c #491111",
",. c #691919",
"<. c #37393D",
"1. c #411313",
"2. c #1F1C20",
"3. c #303235",
"4. c #26282B",
"5. c #701919",
"6. c #111112",
"7. c #431313",
"8. c #1D1D21",
"9. c #2A1314",
"0. c #1F1011",
"q. c #871C1C",
"w. c #1F2024",
"e. c #1A1A1D",
"r. c #3C1A1C",
"t. c #6F1A1A",
"y. c #2C2E31",
"u. c #992222",
"i. c #2A2A30",
"p. c #5D1515",
"a. c #1C1314",
"s. c #2F1314",
"d. c #311E21",
"f. c #421010",
"g. c #AD2828",
"h. c #0E0E0F",
"j. c #1A1314",
"k. c #2C2C32",
"l. c #232227",
"z. c #35343B",
"x. c #17171A",
"c. c #282A2D",
"v. c #3C3F42",
"b. c #232328",
"n. c #101011",
"m. c #851B1B",
"M. c #1E1E22",
"N. c #1B1B1F",
"B. c #121213",
"V. c #6F1919",
"C. c #2D2D33",
"Z. c #222227",
"A. c #9A2222",
"S. c #AB2828",
"D. c #1F1F23",
"F. c #1C1C20",
"G. c #A42525",
"H. c #1D1C20",
"J. c #202025",
"K. c #A52626",
"L. c #222226",
"P. c #17171B",
"I. c #1A1A1E",
"U. c #333639",
"Y. c #303135",
"T. c #3B3E41",
"R. c #221B1F",
"E. c #212125",
"W. c #292B2E",
"Q. c #25262A",
"!. c #9B2323",
"~. c #741919",
"^. c #202024",
"/. c #1B1B1E",
"(. c #373A3D",
"). c #441C1E",
"_. c #8E2020",
"`. c #282B2D",
"'. c #1F1F24",
"]. c #222126",
"[. c #AC2828",
"{. c #202124",
"}. c #29292E",
"|. c #431414",
" X c #982222",
".X c #1D1D20",
"XX c #34333A",
"oX c #1C1C1F",
"OX c #38393F",
"+X c #35353B",
"@X c #922728",
"#X c #131011",
"$X c #542527",
"%X c #3A3B40",
"&X c #34343A",
"*X c #34343B",
"=X c #212126",
"-X c #811A1A",
";X c #212025",
":X c #393C3F",
">X c #442427",
",X c #35383B",
"<X c #401010",
"1X c #2B2B31",
"2X c #481718",
"3X c #1E1E23",
"4X c #9A2323",
"5X c #3C3E42",
"6X c #741A1A",
"7X c #6A1B1B",
"8X c #481C1E",
"9X c #373A3E",
"0X c #A52828",
"qX c #781E1F",
"wX c #7A1F20",
"eX c #7E1B1B",
"rX c #802020",
"tX c #832528",
"yX c #171314",
"uX c #222326",
"iX c #1D1E20",
"pX c #191A1D",
"aX c #19191D",
"sX c #242226",
"dX c #222527",
"fX c #151517",
"gX c #972222",
"hX c #6D2B2E",
"jX c #7D2021",
"kX c #992323",
"lX c #772225",
"zX c #742D2F",
"xX c #331313",
"cX c #212226",
"vX c #4A1616",
"bX c #841D1E",
"nX c #441313",
"mX c #2C2D32",
"MX c #2F2F36",
"NX c #393C40",
"BX c #2E181A",
"VX c #3B3E42",
"CX c #8F1F1F",
"ZX c #2D2C33",
"AX c #232327",
"SX c #761919",
"DX c #431819",
"FX c #672021",
"GX c #47181A",
"HX c #16161A",
"JX c #39191B",
"KX c #3B1B1E",
"LX c #211C20",
"PX c #732D31",
"IX c #531414",
"UX c #541414",
/* pixels */
"k.k.k.k.k.k.k.k.k.3 u.u.u.u.o k.k.k.k.k.< z.z.z.z.z S.u.u.u.3 k.8.8.8.8.M b.b.b.b.b.b.b.b.M.x.x.x.x.x.I.8.8.8.8.8.8.%.k.k.k.k.k.",
"k.k.k.k.k.k.k.k.3 u.u.u.u.u.u.o C.k.k.k.XXz.z.z.z g.O u.u.u.u.3 8.8.8.I.b.b.b.b.b.b.b.b.M.x.x.x.x.P.N.8.8.8.8.8.8.8.8.%.k.k.k.k.",
"k.k.k.k.k.k.k.3 u.u.u.u.u.u.u.u.o   k.MXz.z.z.z.g.g.1 u.u.u.u.u.8.8.8.* b.b.b.b.b.b.b.M.x.x.x.x.r x.fXB.B.fX* N.8.8.8.8.%.k.k.k.",
"C.k.k.k.k.k.3 u.u.u.u.u.u.u.u.u.u.o + s z.z.z.z.g.g.X u.u.u.u.u.8.8.N.x.b.b.b.b.b.b.M.x.r & 6.h.n.n.n.n.n.n.n.n.B.fX* N.8.%.k.ZX",
"z.XXs MXC.3 u.u.u.u.u.u.u.u.u.u.A.1 L J ,Xz.z.z.g.g.!.u.u.u.u.u.8.8.F.x.b.b.b.b.b.M.x.r G h.R / d 7.,.p p ,.nXd / 0.Z n.N.8.N XX",
"z.z.z.z.z H K.X A.u.u.u.u.u.A.1 S.g.g.9 v.&.z.z.g.S.u.u.u.u.u.u.8.8.8.K b.b.b.b.M.x.x.& G y A V.p u.u.u.u.u.u.p V.A ^ 0.* M.Z.k.",
"z.z.z.z g.g.g.g.g.O G.: !.1 [.g.g.g.g.9 v.P z.z.z O u.u.u.u.u.3 8.8.8.N.b.b.b.Z.x.x.x.6.R A u.u.u.u.u.u.u.u.u.u.u.u.A { r l.l.l.",
"z.z.z g.g.g.g.g.g.g.g.g.g.g.g.g.g.g.9 v.P z.z.z.z.hXu.u.u.u.3 k.8.8.8.8.M b.b.E.x.x.x.n.0.V.u.u.h . i 7 7 i . h u.u.V.s.fXl.l.l.",
"z.z g.g.g.g.g.g.g.g.g.g.g.g.g.g.g.9 v.J x z.z.z.z.MXk.k.k.k.k.k.8.8.8.8.B b.b.D.x.P.aXn.{ p u._.^ <X! S S ! $.^ _.A.4X;.& J.l.l.",
"z g.g.g.g.g.g.g.g.g.g.g.g.g.g.g.9 v.V v.v.J OXx z.C.k.k.k.k.k.k.8.8.8.8.1Xb.b.M.* F.* n.1.u.u., f.Z n.n.n.n.n.m , O g.v & H.l.l.",
"2 g.g.g.g.g.g.g.g.g.g.g.g.g.g.9 v.P z.P v.v.v.v.%X@ C.k.k.k.k.k.8.8.8.8.k.N b.F.F.8.fXn.,.u.u.g O.n.n.r r n.n.d X.g.g.C & aXl.;X",
"u.b 2 g.g.g.g.g.g.g.g.g.g.g.9 v.P z.z.+X5Xv.v.v.:X= = T @ C.k.k.8.8.8.8.k. .%.'.8.8.B.n.p u.u.l S n.r 8.8.r 6.a.% g.g.1 & - M.8.",
"u.u.u.b O g.g.g.g.g.g.g.g.9 v.P z.z.z.z.OXv.zXg.1 u.u.u.u.u.wXGX~ BXI 8.k.k.k.M.8.8.B.n.p u.u.l S n.x.8.8.aX& a.% g.S.-.n.B.8.8.",
"u.u.u.u.u.: g.g.g.g.g.g.9 v.P z.z.z.z.z.z.T.%X..X u.u.u.u.u.u.Q % ^ ^ ;.k.k.1X8.8.8.fXn.,.u.u.g d n.n.* e.& & s.X.1 u.,.n.fX8.8.",
"o u.u.u.u.u.O g.g.g.g.9 v.P z.z.z.z.z.z.z.&.v.T 6 u.u.u.u.u.u.u.u.. E ^ r.k.}.8.8.8.* n.1.u.u., m 6.B.& & & & 1.h : u.7.n.* 8.8.",
"k.o u.u.u.u.G.g.g.g.9 v.P z.z.z.z.z.z.z.z.z.%X(.cX6 u.u.u.u.u.u.u.u.Q % ^ KXB 8.8.8.N.n.{ p A.gXl 1.s.a.a.s.1.A K.G.p d n.N.8.8.",
"k.C.o u.u.u.: g.g.9 v.P z.z.z.z.z.z.z.z.z.z.+ = W 8.6 u.u.u.u.u.u.u.u.u.7 ^ U 8.8.8.8.B.0., [.g.G.k 5.UXUX5.k G.g.O V./ B.8.8.8.",
"k.k.  o u.u.u.g.9 v.P z.z.z.z.z.z.z.z.z.z.< k.Y.= B 8.6 u.u.u.u.u.u.u.u.*.^ ^ I 8.8.M.x.j.g g.g.g.g.g.H H g.g.g.g.g.A S fX8.8.8.",
"k.k.k.+ o u.u.L v.V z.z.z.z.z.z.z.z.z.z.< k.k.mXT T w.8.6 u.u.u.u.u.u.u.u.7 ^ w M.E.l.H.& l g q 1 g.g.g.g.g.g.1 q g >.Z * 8.8.8.",
"k.k.k.k.T o o <.T.v.V +Xz.z.z.z.z.z.z.< k.1Xk.k.@ = y.8.8.6 u.u.u.u.u.u.u.*.>.( l.l.l.J.& yX=.9.xX0 C 1 1 C 0 xX9.=.yXn.N.8.8.8.",
"k.k.k.k.C.= = T x v.v.5X<.z.z.z.z.z.MXk.1XM B k.k.T = M 8.8.6 u.u.u.u.u.1 H g.g.g.g.g.@XJ.H.aXfX& & & & & & & & fXaXoXN.8.8.n a ",
"k.k.k.k.k.  Y.k.&XT.v.v.v.T.&.z.z.MXk.1X%.b.b.%.i.  = 3.M.8.8.6 u.u.1 S.g.g.g.g.g.g.g.# l.l.l.l.J.H.aXfXfXaXH.J.l.l.l.8.8.8Xh ).",
"k.k.k.k.k.k.k.k.*XP v.v...%Xv.%X< k.k.N b.b.b.b.b.8 = 4 8.8.8.8.6 u.b O g.g.g.g.g.g.@Xl.l.l.l.l.l.l.l.l.l.l.l.l.l.l.l.D e u.C 8.",
"k.k.k.k.k.k.k.  z.x v.v.g.FX3.<.= Y.4 b.b.b.b.b.N c.uXF.8.8.8.8.8.6 u.u.G.g.g.g.g.g.# l.l.l.l.l.l.l.l.l.l.l.l.l.l.l.$Xj u.u.).8.",
"k.3 u.u.u.u.3 + z.z.T.v.g.g.a w.W 3.c.Q.b.b.b.N c.{.x.P./.AX8.8.8.8.8.8.8.3XL.l.l.l.l.l.l.l.l.l.g.g.g.g.g.g.g.g.g.g.g.K.u.C 8.8.",
"3 u.u.u.u.u.u.PXz.z.OXv.g.X u.v e.w.c.c.c.Q.N c.{.x.x.x.8.1XM 8.8.8.8.8.8.8.8.E.l.l.l.l.l.l.l.l.g.g.g.g.g.g.g.g.g.g.[.!.u.).8.8.",
"u.u.u.u.u.u.b g.z.z.x v.X u.u.u.0 - pXdXc.c.c.{.x.x.x.8.b.}.1XD.8.8.8.8.8.8.8.8.D.l.l.l.l.l.l.l.g.g.g.g.g.g.g.g.g.g.1 u.C 8.8.8.",
"u.u.u.u.u.u.1 g.z.z.z._ u.u.u.u.u.#.B.x.iX4.{.x.x.x.8.b.b.%.k.B 8.8.8.8.8.8.8.8.8.M.].l.l.l.l.l.g.g.g.g.g.g.g.g.g.S.u.u.).8.8.8.",
"u.u.u.u.u.u.1 g.z.z.MX@ u.u.u.u.u.u.vXB.x.* x.x.x.8.b.b.m.m.+.u.u.u.u.u.u.u.u.u.u.u.8X^.l.l.l.l.g.g.g.g.g.g.g.g.g.Q 7XKX8.8.8.8.",
"u.u.u.u.u.u.: g.z.z.< C.u.u.u.u.u.u. X( n.HXx.x.oXb.b.b.m.m.CXu.u.u.u.u.u.u.u.u.u.u.bXI 3XL.l.l.g.g.g.g.g.g.1 q v I 8.8.8.8.8.8.",
"3 u.u.u.u.u.A.z z.z.z.s jXu.u.u.u.u.u.+.|.h.r x.x..XZ.b.m.m.] u.u.u.u.u.u.u.u.u.u.u.u.$ 2.8.E.l.g.g.g.g.g.j A t M.8.8.8.8.8.8.8.",
"k.3 u.u.u.u.3 &Xz.z.z.z.# 4Xu.u.u.u.u.u.Q |.h.r x.x.aX'.m.m.m.+.u.u.u.u.u.u.u.u.u.u.u.*.;.8.8.D.g.g.g.g.g.o.t J.8.8.8.8.8.8.8.8.",
"8.8.8.8.8.8.8.=Xl.l.l.l.D 6X2 !.u.u.u.u.u.F |.h.- x.x.x.m.m.m.F 8.8.8.8.8.8.6 u.u.u.u.u.^ R.8.8.b O g.g.j t Z.8.8.8.8.8.8.8.8.8.",
"8.8.8.8.8.8.8.;Xl.l.l.l.l.#.+.S.X u.u.u.u. X] |.G B.x.x.m.m.m.q.8.8.8.8.8.8.;.V.u.u.u.u.^ R.8.8.u.u.G.g.` l.'.8.8.8.8.8.8.8.8.8.",
"8.8.8.8.8.8.8.'.l.l.l.l.l.r.p.2 g.K.A.u.u.u.+.q.G G x.x.m.m.m.m.N.8.8.8.8.w ^ V.u.u.u.u.^ R.8.8.u.u.u.> L.].8.8.8.8.8.8.8.8.8.8.",
"8.8.8.8.8.8.8.D.l.l.l.l.l.D A 6Xg.g.H b u.u.u.Q G G x.x.m.m.m.m.aX8.8.8.w ^ V.u.u.u.u.u.^ R.8.8.u.u.u 8.8.M.8.8.8.8.8.8.8.8.8.8.",
"k.k.k.k.k.k.k.C.z.z.z.z.z.z.>XA o.j g.O u.u.u.u.h.G x.x.m.m.m.m.* 8.8.w ^ V.u.u.u.u.u.u.^ R.8.8.u.u 8.8.8.8.8.8.8.8.8.8.8.8.8.8.",
"k.k.k.k.k.k.k.k.*Xz.z.z.z.z.z.>XA A o.-.u.u.u.u.n.G x.x.m.m.m.m.x.N.w ^ V.u.u.u.u.u.u.u.^ R.8.8.u 8.8.8.8.8.8.8.8.8.8.8.8.8.8.8.",
"k.k.k.k.k.k.k.k.XXz.z.z.z.XX+   5 A A E u.u.u.u.n.n./.aX] m.m.m.[ O.^ V.u.u.u.u.u.u.u.V.~ 8.8.8.8.8.8.8.8.8.8.8.8.8.8.8.8.8.8.8.",
"k.k.k.k.k.k.1X}.k.k.}.N M l.l.l.l.t A E u.u.u.u.n.n.8.8.u. X@.CXk p.o.u.u.u.u.u.u.u.V.~ 8.8.8.8.8.8.8.8.8.8.8.8.8.8.8.8.8.8.8.8.",
"k.k.k.k.1XZ.8.8.^.l.l.l.l.l.l.l.l.l.Y $.u.u.u.u.n.n.8.8.u.u.u.u.u.u.u.u.u.u.u.u.u.V.~ 8.8.8.8.8.8.4 = = _ 9X= = = = = = = T Y.| ",
"k.k.k.B M.8.8.8.D.l.l.l.l.l.l.l.l.l.l.B.u.u.u.u.n.n.8.8.u.u.u.u.u.u.u.u.u.u.u.u.V.~ 8.8.8.8.8.8.4 = = (.v.,X= = = = T Y.| k.k.k.",
"k.1XZ.8.8.8.8.8.F.H.aXfXfXaXH.J.l.l.l.x.u.u.qX~ r /.8.8.8Xq u.u.u.u.u.u.u.u.u.V.w 8.8.8.8.8.8.4 = U.NXv.T.= = = = = T @ C.k.k.k.",
"B M.8.8.N.* fXB.n.& & & & & & & fXaXH.e.qXJX/.8.8.8.8.8.8.I $ q u.u.u.u.u.u.V.w 8.8.8.8.8.8.4 = ,XVXv.v.(.= = = = = = = = T @ C.",
"8.N.e.* n.#XS / d 7.t.kXX C 0 xX9.=.j.6.N.8.8.8.8.8.8.8.8.8.2.~ ^ ^ ^ ^ ^ ^ w 8.8.8.8.8.8.4 U.P v.v.v.v.U.4 8.8.8.8.8.8.8.8.8.8.",
"P.x.x.& h.f.A V.p u.u.u.A.X 2 1 q g A / * 8.8.8.8.8.8.8.8.8.8.8.8.8.8.8.8.8.8.8.8.8.8.8.4 _ J v.v.v.v.:X4 8.8.8.8.8.8.8.8.N.I.K ",
"x.x.x.6.R >.u.u.u.u.u.u.u.u.u.A.X O g { fX8.8.8.8.8.8.8.8.8.8.8.8.8.8.8.8.8.8.8.8.8.8.4 (.v.v.v.v.v.v.8 8.8.8.8.8.8.I.K P.x.x.x.",
"x.x.x.h.f 7 CXu.h . i 7 7 i . h u.u.5.d B.8.8.8.8.8.8.8.8.8.8.8.8.8.8.8.8.8.8.M.M.M.W.NXv.v.v.v.v.v.@ 8.8.8.8.8.8.aXx.x.x.x.x.x.",
"x.x.r G f ~.m.*.^ <X! S S ! $.^ _.u.p O.n.N.8.8.u.b G.K.K.2 O O O H S.[.g.lXl.l.l.W v.v.v.v.v.v.v.Y.^.8.8.4 = = y.c.c.c.c.c.c.c.",
"x.x.& G ) m.m.% $.Z n.n.n.n.n.m , u.u.( n.* 8.8.!.S.g.g.g.g.g.g.g.g.g.g.rXsXl.l.W v.v.v.v.v.v.v.Y.l.M.8.4 = = | c.c.c.c.c.c.c.4.",
"x.x.6.G IXm.m.l ; h.n.r r n.n.{ g u.u.o.n.fX8.8.O g.g.g.g.g.g.g.g.g.g.q D l.l.l.v.v.v.v.v.v.v.Y.l.E.8.4 = = W c.c.c.c.c.c.c.c.Q.",
"x.x.h.G ~.m.m.:.R G fX8.8.r n.S l u.u.p n.B.8.^.g.g.g.g.g.g.g.g.g.g.q d.l.l.l.l.v.v.v.v.v.v.Y.l.l.D.4 = = 3.`.c.c.c.c.c.c.c.c.M ",
"x.x.h.G ~.m.m.:.R G & F.8.x.n.Z l u.u.p n.B.M.l.g.g.g.g.g.g.g.g.j o.KXl.l.l.l.l.v.v.v.v.v.Y.l.l.L.4 = = + `.c.c.c.c.c.c.c.c.c.b.",
"x.x.6.G UXm.m.l ; G G & x.n.n.{ g u.u.,.n.fXL.l.g.g.g.g.g.g.j o.A KXl.l.l.l.l.l.v.v.v.v.Y.l.l.l.' = = T W.c.c.c.c.c.c.c.c.c.4.b.",
"x.x.& G ) m.m.% ! G G G G n.n.c , u.u.7.n.aXl.l.g.g.g.g.g.1 A 2XD l.l.l.l.l.l.l.v.v.v.v.l.Z.L.].U.= T } c.c.c.c.c.c.c.c.c.c.Q.b.",
"I.* r G f ~.m.X.y ! f R R ; c ^ _.u.p d n.N.=Xl.g.g.g.g.g.q 2Xl.l.l.l.L.J.'.D.D._ _ U.U.8.8.8.8.= = ' c.c.c.c.c.c.c.c.c.c.`.B }.",
"8..XaXh.f 7 m.m.SXp.>.y y >.g k u.u.V./ B.8.M.l.g.g.g.g.g.% D l.].^.M.8.8.8.8.8.= = = = 8.8.8.8.= y.c.c.c.c.c.c.c.c.c.' W T C.k.",
"8.8.8.- R f.m.m.m.m.m.-X-Xm.m.F u.u.A S fX8.8.E.g.g.g.g.1 JX'.M.8.8.8.8.8.8.8.8.= = = = 8.8.8.8.y.c.c.c.c.c.c.c.} | T = = =   k.",
"8.8.8.* n.$.^ 7 ~.m.m.m.m.m.m.X.i A ^ Z * 8.8.$Xg.g.O X t.2.8.8.8.8.8.8.8.8.8.8.= T T = 8.oXI.aXc.c.c.c.c.c.`.+ = = = = = = + k.",
"8.8.8.N.n.#XS f ; ) UXX.eXg 1.d / S Z n.N.8.D 0Xg.g.K.u.t 8.8.8.8.8.8.8.8.8.8.8.3.' W.} P.x.x.x.c.c.c.c.c.c.| = = = = = = = T k.",
"B M.8.8.N.* fXB.n.h.n.n.n.n.n.n.B.fX* N.8.8.tXg.g.g.-.$ 8.8.8.8.8.8.8.8.8.F.* x.c.%.M c.x.x.x.x.c.c.c.c.c.W.T = = = = = = = = C.",
"k.1XZ.8.8.8.8.8.N.* fXB.B.fX* N.8.8.8.8.8.# g.g.j o.l BX8.8.8.8.8.8.8.8.8.e.x.x.c.b.b.c.x.x.x.x.c.c.c.c.c.W = = = = = = = = =   ",
"k.k.k.B M.8.8.8.8.8.8.8.8.8.8.8.8.8.8.8.n X j o.A A l LX8.8.8.8.8.8.8.8..XP.x.x.N b.b.N x.x.x.x.c.c.c.c.W.+   C.C.  + T = = = + ",
"k.k.k.k.1XZ.8.8.8.8.8.8.8.8.8.8.8.8.8.8.a u DXr.U d.D 8.8.8.8.8.8.8.8.8.I.x.x.x.M b.b.M x.x.x.x.c.4.Q.M i.k.k.k.k.k.k.k.C.  + + "
};
