/* XPM */
static char *_581601898378[] = {
/* columns rows colors chars-per-pixel */
"64 64 204 2 ",
"   c #9BEBEA",
".  c #5D3D1B",
"X  c #A4EFEE",
"o  c #462E15",
"O  c #6B684F",
"+  c #5EE1E0",
"@  c #2B1D0E",
"#  c #7C5223",
"$  c #A16B2D",
"%  c #8B8967",
"&  c #A4A17C",
"*  c #585741",
"=  c #CDF4F4",
"-  c #494736",
";  c #D5F7F6",
":  c #EAFBFB",
">  c #362410",
",  c #613E1B",
"<  c #E9FAFA",
"1  c #D0F6F5",
"2  c #B3F0EF",
"3  c #31200F",
"4  c #BEF4F3",
"5  c #6BE5E4",
"6  c #8C5223",
"7  c #22170B",
"8  c #DBF9F8",
"9  c #648E79",
"0  c #EBFBFB",
"q  c #53523E",
"w  c #6A674E",
"e  c #96F3F3",
"r  c #64614A",
"t  c #2C1E0E",
"y  c #5B5A44",
"u  c #A5EFEE",
"i  c #E8FAFA",
"p  c #26190C",
"a  c #585641",
"s  c #A29E7B",
"d  c #D1F5F5",
"f  c #658E7B",
"g  c #B6F0EF",
"h  c #D7F7F7",
"j  c #64624A",
"k  c #453A26",
"l  c #46816D",
"z  c #A9EFEF",
"x  c #5D5A44",
"c  c #8B8665",
"v  c #817C68",
"b  c #71E7E6",
"n  c #B4F2F1",
"m  c #D0F5F5",
"M  c #D3F5F5",
"N  c #C4F5F4",
"B  c #5FE1E0",
"V  c #EAFAFA",
"C  c #D1F7F6",
"Z  c #646149",
"A  c #7E7E5E",
"S  c #898665",
"D  c #504F3B",
"F  c #362D1C",
"G  c #CFF4F4",
"H  c #4F4E3A",
"J  c #69E5E4",
"K  c #64614E",
"L  c #53503D",
"P  c #52503D",
"I  c #CBC4B7",
"U  c #D3F7F7",
"Y  c #61E2E1",
"T  c #6DE6E5",
"R  c #B5F2F1",
"E  c #68654C",
"W  c #4B4A38",
"Q  c #C7F5F5",
"!  c #D0F7F6",
"~  c #AAF0EF",
"^  c #C3BCAE",
"/  c #BAF3F2",
"(  c #ADF1F0",
")  c #C8F5F5",
"_  c #74E8E7",
"`  c #CDF6F6",
"'  c #B3F2F1",
"]  c #5B5844",
"[  c #CEF6F6",
"{  c #A7F0EF",
"}  c #B7F2F2",
"|  c #463B26",
" . c #C1F4F3",
".. c #CCF6F5",
"X. c #D5F6F6",
"o. c #D5F8F7",
"O. c #C6F5F4",
"+. c #66E4E3",
"@. c #B2F2F1",
"#. c #ABF0EF",
"$. c #D8F8F8",
"%. c #CAF6F5",
"&. c #64E3E2",
"*. c #84EDEC",
"=. c #86816D",
"-. c #E3F9F9",
";. c #65624A",
":. c #565441",
">. c #3E3420",
",. c #3E3421",
"<. c #A6EDEC",
"1. c #A59E8C",
"2. c #D3F6F6",
"3. c #62E1E1",
"4. c #D4F7F7",
"5. c #B4F0EF",
"6. c #56533F",
"7. c #A6EFEE",
"8. c #4A4937",
"9. c #BDF3F3",
"0. c #837E68",
"q. c #53503E",
"w. c #565341",
"e. c #65E3E2",
"r. c #AAEEED",
"t. c #C2F4F4",
"y. c #C7C0B2",
"u. c #B0F1F0",
"i. c #8CF0EF",
"p. c #B8F3F2",
"a. c #C9F6F5",
"s. c #CEF4F4",
"d. c #6EE6E5",
"f. c #90F1F0",
"g. c #82ECEC",
"h. c #6FE7E6",
"j. c #BBF3F2",
"k. c #B7F2F1",
"l. c #817C67",
"z. c #4C4A39",
"x. c #A9F0EF",
"c. c #D9F8F8",
"v. c #DFF8F8",
"b. c #CBF6F5",
"n. c #CBF4F4",
"m. c #C5F5F4",
"M. c #6FE6E5",
"N. c #95F2F2",
"B. c #6CE5E4",
"V. c #DAF9F8",
"C. c #8EF0F0",
"Z. c #BFF4F3",
"A. c #82EDEC",
"S. c #88EEEE",
"D. c #79EAE9",
"F. c #7CEBEA",
"G. c #BBF1F1",
"H. c #A8F0EF",
"J. c #A5A08E",
"K. c #60E2E1",
"L. c #66E3E3",
"P. c #C2BCAD",
"I. c #ABEEED",
"U. c #E6FAFA",
"Y. c #4C4B39",
"T. c #7FEBEB",
"R. c #84EDED",
"E. c #98EBEA",
"W. c #63E3E2",
"Q. c #95F3F2",
"!. c #A29D89",
"~. c #A8EEED",
"^. c #CFF5F5",
"/. c #6AE5E4",
"(. c #C7F5F4",
"). c #69E4E4",
"_. c #D7F6F6",
"`. c #94F2F2",
"'. c #A29D8B",
"]. c #A5A08C",
"[. c #6CE5E5",
"{. c #5B5842",
"}. c #96EAE9",
"|. c #7DEBEA",
" X c #B6F2F1",
".X c #C6F4F3",
"XX c #90F1F1",
"oX c #DAF8F8",
"OX c #96F3F2",
"+X c #DBF7F7",
"@X c #D2F6F6",
"#X c #7BEAEA",
"$X c #D7F8F7",
"%X c #92F2F1",
"&X c #CBF5F4",
"*X c #89EFEE",
"=X c #B1EFEF",
"-X c #81ECEB",
";X c #AEF1F0",
":X c #95EAE9",
">X c #86EEED",
",X c #4B4A37",
"<X c #81ECEC",
"1X c #C5F3F3",
/* pixels */
"% % % % % % % % % % % % % % , , # # # # # # # # # # # # # # # # # # # # # # # # # # # # # # # # , , % % % % % % % % % % % % % % ",
"% & & & & & & & & & & & & % , , # # # # # # # # # # # # # # # # # # # # # # # # # # # # # # # # , , % & & & & & & & & & & & & % ",
"% & O O O O O O O O O O O * 6 6 $ $ $ $ $ $ $ $ $ $ $ $ $ $ $ $ $ $ $ $ $ $ $ $ $ $ $ $ $ $ $ $ 6 6 % & O O O O O O O O O O O * ",
"% & O O O O O O O O O O O * o o . . . . . . . . . . . . . . . . . . . . . . . . . . . . . . . . o o % & O O O O O O O O O O O * ",
"% & O O O r y q y O O O O * o o . . . . . . . . . . . . . . . . . . . . . . . . . . . . . . . . o o % & O O O j P 8.P ;.O O O * ",
"% & O O r - - - - L O O O * o o . . . . . . . . . . . . . . . . . . . . . . . . . . . . . . . . o o % & O O j - - - - - ;.O O * ",
"% & O O P - 0.].w.- Z O O * > > o o o o o o o o o o o o o o o o o o o o o o o o o o o o o o o o > > % & O O y - v y.l.- y O O * ",
"% & O O 8.- y.I =.- {.O O * > > o o o o o o o o o o o o o o o o o o o o o o o o o o o o o o o o > > % & O O q - 1.I 1.- q O O * ",
"% & O O P - 0.J.w.- Z O O * t p @ @ @ @ @ @ @ @ @ @ @ @ @ @ @ @ @ @ @ @ @ @ @ @ @ @ @ @ @ @ @ @ p t % & O O y - :.=.:.- y O O * ",
"% & O O r - - - - L O O w D 7 7 @ @ @ @ @ @ @ @ @ @ @ @ @ @ @ @ @ @ @ @ @ @ @ @ @ @ @ @ @ @ @ @ 7 7 A s O O O L - - - L O O O * ",
"% & O O O r ] q ] O O w a F 3 9 R X X X X X X X X X X X X X X X X X X X X X X X X X X X X X X ' 9 3 | c w O O O r ] r O O O O * ",
"% & O O O O O O O O w a F 3 9 X @.) u X X X X X X X X X X X X X X X X X X X X X X X X X X u Q ( X 9 3 | a w O O O O O O O O O * ",
"% & O O O O O O O w a F 3 9 X X X [ ` { X X X X X X X X X X X X X X X X X X X X X X X X H.` N X X X 9 3 ,.a w O O O O O O O O * ",
"% % * * * * * * * D F 3 9 X X X X ' 8 C ~ X X X X X X X X X X X X X X X X X X X X X X ~ C $.x.X X X X 9 3 ,.D * * * * * * * * * ",
", , 6 o o o > > t 7 3 9 X X X X X X [ 8 4.( X X X X X X X X X X X X X X X X X X X X ;Xo.8 9.X X X X X X 9 3 7 t , , 6 o o o > > ",
", , 6 o o o > > p 7 9 X X X X X X X n 8 8 $X} R  Xp./ j.9.4  . .N m.Q ) %...` ! ! U c.8 4.7.X X X X X X X 9 7 p , , 6 o o o > > ",
"# # $ . . . o o @ @ ' n X X X X X z m V : : : : : : : : : : : : : : : : : : : < i i : : i m z X X X X X n n @ @ # # $ . . . o o ",
"# # $ . . . o o @ @ X t.C } u X z m i 0 0 -.M M M M d d d d m G G G G = = = = = = = X.V 0 i m z X u k.! (.X @ @ # # $ . . . o o ",
"# # $ . . . o o @ @ X X N 8 U / d i 0 0 v.s.= = = = = = = = = = = = = = = = = = = = = X.V 0 i d / U 8 %.u X @ @ # # $ . . . o o ",
"# # $ . . . o o @ @ X X X O.8 8 : 0 0 +X= = = = g                                       r.; h ; e e *XK.+ + @ @ # # $ . . . o o ",
"# # $ . . . o o @ @ X X X u Q 8 : 0 _.= = = = g                                           r.; ; e i.Y + + + @ @ # # $ . . . o o ",
"# # $ . . . o o @ @ X X X X u b.: < = = = = g                                               1 ; C.W.+ + + + @ @ # # $ . . . o o ",
"# # $ . . . o o @ @ X X X X X 4 : < = = = g                                                 1 ; T + + + + + @ @ # # $ . . . o o ",
"# # $ . . . o o @ @ X X X X X 4 : < = = g                                                   1 ; 5 + + + + + @ @ # # $ . . . o o ",
"# # $ . . . o o @ @ X X X X X 4 : < = g                                                     1 ; 5 + + + + + @ @ # # $ . . . o o ",
"# # $ . . . o o @ @ X X X X X 4 : < =                                                       1 ; 5 + + + + + @ @ # # $ . . . o o ",
"# # $ . . . o o @ @ X X X X X 4 : < =                                                       1 ; 5 + + + + + @ @ # # $ . . . o o ",
"# # $ . . . o o @ @ X X X X X 4 : < =                                                       1 ; 5 + + + + + @ @ # # $ . . . o o ",
"# # $ . . . o o @ @ X X X X X 4 : < =                                                       1 ; 5 + + + + + @ @ # # $ . . . o o ",
"# # $ . . . o o @ @ X X X X X 4 : < =                                                       1 ; 5 + + + + + @ @ # # $ . . . o o ",
"# # $ . . . o o @ @ X X X X X 4 : < =                                                       1 ; 5 + + + + + @ @ # # $ . . . o o ",
"# # $ . . . o o @ @ X X X X X 4 : < =                                                       1 ; 5 + + + + + @ @ # # $ . . . o o ",
"# # $ . . . o o @ @ X X X X X 4 : < =                                                       1 ; 5 + + + + + @ @ # # $ . . . o o ",
"# # $ . . . o o @ @ X X X X X 4 : < =                                                       1 ; 5 + + + + + @ @ # # $ . . . o o ",
"# # $ . . . o o @ @ X X X X X 4 : < =                                                       1 ; 5 + + + + + @ @ # # $ . . . o o ",
"# # $ . . . o o @ @ X X X X X 4 : < =                                                       1 ; 5 + + + + + @ @ # # $ . . . o o ",
"# # $ . . . o o @ @ X X X X X 4 : < =                                                       1 ; 5 + + + + + @ @ # # $ . . . o o ",
"# # $ . . . o o @ @ X X X X X 4 : < =                                                       1 ; 5 + + + + + @ @ # # $ . . . o o ",
"# # $ . . . o o @ @ X X X X X 4 : < =                                                       1 ; 5 + + + + + @ @ # # $ . . . o o ",
"# # $ . . . o o @ @ X X X X X 4 : < =                                                       1 ; 5 + + + + + @ @ # # $ . . . o o ",
"# # $ . . . o o @ @ X X X X X 4 : < =                                                       1 ; 5 + + + + + @ @ # # $ . . . o o ",
"# # $ . . . o o @ @ X X X X X N : < =                                                       1 ; D.+ + + + + @ @ # # $ . . . o o ",
"# # $ . . . o o @ @ X X X X R V.: < =                                                       1 ; OXh.+ + + + @ @ # # $ . . . o o ",
"# # $ . . . o o @ @ X X X u.$.8 : V M                                                     =Xh ; e `./.+ + + @ @ # # $ . . . o o ",
"# # $ . . . o o @ @ X X ~ o.8 ..i 0 < <.                                                I.; h 2 S.e XX&.+ + @ @ # # $ . . . o o ",
"# # $ . . . o o @ @ X { C U R X ^.U.0 2.<.                                            ~.; h G.:X+ b f.i.Y + @ @ # # $ . . . o o ",
"# # $ . . . o o @ @ u ) Z.7.X X z = -.h 2.5.2 2 2 2 2 2 2 2 2 2 2 2 2 2 2 2 2 2 2 2 5.@Xh 1X}.3.+ + Y #X*.B @ @ # # $ . . . o o ",
"# # $ . . . o o @ @ n #.X X X X X z n..X; ; ; ; ; ; ; ; ; ; ; ; ; ; ; ; ; ; ; ; ; ; ; ; &XE.3.+ + + + + +.M.@ @ # # $ . . . o o ",
", , 6 o o o > > p 7 f X X X X X X X #.Q.e >X_ _ _ b b b b d.T T T [.J J J J +.e.e.L.R.e %XY + + + + + + + l 7 p , , 6 o o o > > ",
", , 6 o o o > > t 7 3 f X X X X X X O.e *.B + + + + + + + + + + + + + + + + + + + + B A.e F.+ + + + + + l 3 7 t , , 6 o o o > > ",
"% % % % % % % % % A k 3 f X X X X ( oXg.B + + + + + + + + + + + + + + + + + + + + + + B -XN.&.+ + + + l 3 k A % % % % % % % % % ",
"% & & & & & & & & s c k 3 f X X X a.N + + + + + + + + + + + + + + + + + + + + + + + + + + T.<X+ + + l 3 k c s & & & & & & & & % ",
"% & O O O O O O O O w a >.3 f X u.t.X + + + + + + + + + + + + + + + + + + + + + + + + + + + |.).+ l 3 k c s & S O O O O O O O * ",
"% & O O O O O O O O O w a >.3 f @.X X + + + + + + + + + + + + + + + + + + + + + + + + + + + + B.l 3 k c s & S O O O O O O O O * ",
"% & O O E q W q x O O O w D 7 7 @ @ @ @ @ @ @ @ @ @ @ @ @ @ @ @ @ @ @ @ @ @ @ @ @ @ @ @ @ @ @ @ 7 7 A s & S O j x r O O O O O * ",
"% & O O H - - - - x O O O * t p @ @ @ @ @ @ @ @ @ @ @ @ @ @ @ @ @ @ @ @ @ @ @ @ @ @ @ @ @ @ @ @ p t % & S O 6.- - - H E O O O * ",
"% & O Z - K ^ !.- q O O O * , , # # # # # # # # # # # # # # # # # # # # # # # # # # # # # # # # , , % & O j - z.v K - q O O O * ",
"% & O y - v I P.- W O O O * , , # # # # # # # # # # # # # # # # # # # # # # # # # # # # # # # # , , % & O y - v I ^ - W O O O * ",
"% & O j - Y.v K - q O O O * 6 6 $ $ $ $ $ $ $ $ $ $ $ $ $ $ $ $ $ $ $ $ $ $ $ $ $ $ $ $ $ $ $ $ 6 6 % & O Z - K ^ '.- q O O O * ",
"% & O O 6.- - - H E O O O * o o . . . . . . . . . . . . . . . . . . . . . . . . . . . . . . . . o o % & O O H - - - - x O O O * ",
"% & O O O j x r O O O O O * o o . . . . . . . . . . . . . . . . . . . . . . . . . . . . . . . . o o % & O O E q.,Xq.x O O O O * ",
"% & O O O O O O O O O O O * o o . . . . . . . . . . . . . . . . . . . . . . . . . . . . . . . . o o % & O O O O O O O O O O O * ",
"% & O O O O O O O O O O O * > > o o o o o o o o o o o o o o o o o o o o o o o o o o o o o o o o > > % & O O O O O O O O O O O * ",
"% % * * * * * * * * * * * * > > o o o o o o o o o o o o o o o o o o o o o o o o o o o o o o o o > > % % * * * * * * * * * * * * "
};
