/* XPM */
static char *_32eaaf5a4a14881d4d778890806b37d[] = {
/* columns rows colors chars-per-pixel */
"64 64 82 1 ",
"  c #5B233D",
". c #61233F",
"X c #5F2440",
"o c #642643",
"O c #6B2646",
"+ c #672845",
"@ c #692846",
"# c #6E2A4A",
"$ c #722547",
"% c #742749",
"& c #7B264A",
"* c #732B4D",
"= c #7B2A4D",
"- c #772D50",
"; c #7B2F53",
": c #7E3055",
"> c #84274D",
", c #89274F",
"< c #83284F",
"1 c #8C2751",
"2 c #832C53",
"3 c #8C2A53",
"4 c #862E58",
"5 c #8B2E5A",
"6 c #932A55",
"7 c #992956",
"8 c #942E5B",
"9 c #9C2C5A",
"0 c #813156",
"q c #853259",
"w c #8A345C",
"e c #92315D",
"r c #99305D",
"t c #A42B5B",
"y c #AC2B5E",
"u c #B02B5F",
"i c #9D2F61",
"p c #953361",
"a c #9C3264",
"s c #A52F62",
"d c #AD2D63",
"f c #AF2E69",
"g c #B22D63",
"h c #B52F69",
"j c #A23266",
"k c #A93165",
"l c #A43469",
"z c #AB346C",
"x c #B53067",
"c c #B6316B",
"v c #B8326E",
"b c #AD3571",
"n c #B43573",
"m c #BD3676",
"M c #B73877",
"N c #BE3779",
"B c #BE397B",
"V c #C0367D",
"C c #C03A7E",
"Z c #BF3C84",
"A c #C33785",
"S c #C33C83",
"D c #C53789",
"F c #C63D8A",
"G c #C83D8E",
"H c #CA3E92",
"J c #C54087",
"K c #C6428B",
"L c #C8448E",
"P c #CB4393",
"I c #CC4996",
"U c #CE449A",
"Y c #CE4A9A",
"T c #D0469E",
"R c #D04C9E",
"E c #D147A0",
"W c #D24CA3",
"Q c #D351A5",
"! c #D654AB",
"~ c #D857AE",
"^ c #D858AF",
"/ c #D959B0",
/* pixels */
"wq:;###-;;wwMMLSmmuu#wmmLKmmuu#wwwnVKLCmuu*qmCKKmVuu#wNmLKmmuu#w",
"ww:;;###;;waDPSmmvut*wVCLKmmuu#wwwcSLLCmuu*4mPIJmnuy#wmKLJmmuu#w",
";qw:;#@*;:pMUVmmmuu1owCHLJmmuy@0q0zK!LCmuu&wmTRJVcutOaVPKCmmyyo:",
";:qq--**5lNHAmmmguuO#5SPLSmvuto:::sKWICmug=wmERCmuy6OlSTCmmxu9o:",
"*::;;*phmADmmmcuyu& *pFTLCmcu9o-*-rJTRJmuu2eNEQCmuu6$zPTmmmuu& #",
"##--*bGGDVVvgyuuy& o#kPEJmmuu, ###3CE!Jmuu1eCERmVuu.#vRRmmuy7 O#",
"####pPHmmguuuuy1o o##mTWCmVuu$.#*#<NT!Smgu6eNEYmmuu.*CTPmxuy. O*",
"####MESmggyy62oo@#*#wFTImmxuy.*--:<VR~Jmgy6eNEYmmuy 2JEImuy> ###",
":-=;STJmuu<o#;;:;;;4ZUPCmmuy2+:::::mT~Smgu66mEUmcut 8PTImuu$@-:-",
"-::2mLLCuu&*qwwww5lFHDFVmuuto*qwqqwmT~Jmcu73mTImgy6@9PTLCuu<-:::",
"wqq0hVJKCmcsklbMmFHHDDmnuuy**wwwwwaNT!Smgu62mUImgu1#8PIKKvuy0wqq",
"wwwwshuCSmGPPPPHHHGSSmgyut**qqqqwwzSR!Cmgu1=mPKNuu1;8cCLLLvcyrww",
"dtrqeyuucmNmmSAFFVmmguud7@@;;;;::amU~Ummuu1#gPLmuu1:wuxJLLKCmmmn",
"mcyt03yuuugmmmmmmmguuut=.O;;;;4aMKUU~Smmuu%#ymSCgu6=0ruxLLKLCmVV",
"KRAg9;=6yuyguuuuuuuyy<oo#-2anFLREEQ~Kmmcuy+*8ymJvut*;;yuxLLLLLKL",
"KI!Hct:;*<7yuuuuuy6&..%pbFPUTTTRWQIZmmmyu6*q2ygNCun1--=uuuCJKLLL",
"CSL!UAy3;;*@O%%%O.Xo*lCGTTTTRRLJVmmmmmuyto-ww3uxKmgV&*#=gdummmmV",
"mmmCRTUNd73::*##@##5MGTERYKCmVmVmmmmguuyOo:qww9ugKhmn%##&yyguhmm",
"uuuucKUTTCuu6#####8CTUPSmmmmVvVchuuuguto *:qwwwtggLhDh;-==7duuuu",
"uuuuuuNIIHmug6###wSHACmmmVcxuuuuuuuut&  #*:qwwwwyymLmDg;;;-%,7yu",
"**=3yuvmLCmvuto#2CHvmmmguuuuuuut96=+X o##2ejtrww8ygmKmDd0qqqq=**",
"qwq:=3nmCmmnuy ;nGhmmuuguyt63=*#**-**##*amBSSgd9q8ugSKADt:q0qwwq",
"::::::lmxVmuu6oaHmmmyyut2*#@*::0q2;;*#-cCPEEEHVg6;3ugSKGA6::::::",
"::::::cmvmcuy$;BLcmuuy&o+#-:-:-::;;;#*bFE~///~UAd2;6gvKGDm=-*--:",
"@##**pFmmmuu3#lPNCmgy%o***------*####lFE!WIILIWFV9+*tgmJADd@*###",
"####3PAcmuut*0CGSKmyy O28i963*######4SEUSSKLLLLPDg$#%ymSCAD&####",
"###qFHgVguyO#pLCLLLSFFPPUUUSut=**#--zUHBmmmSLLLCDm6+#1vmSxmdo###",
"#*2SRmmvuu&o;kPmLLLLTTPTEWYFxut=:;::SUGMmuggCLLSVVyo*;kNSNuu&*##",
"::MUUMmuu7o*qkSSLKSCVSFFSPLLCuu3:00aPUSmuuugvSISmhg$;:9mmmgu7*;;",
":aGEYmVuy$@0wsgcmmmmmmmcgSLLCxuy:wwlUHmhgy=1cmKKmgu<:qemmCmuy#:;",
"wnUQLmnuy.*ww9uummmvguuyycVKCmuu*wwzUHmgu6#;tmBLmgu7:wemmSmgu=ww",
"wgU~PCmuyoqwqqyuguuuuuyt6zmSSmuu<qwzUHmgu2;:8mmPmmyy;wwmmCmuu;qw",
"wyDWIJmuu@ww0;2tuudt62**;amNSmuu<*:bELmdu<:;0mmLCmuu*weNmmmuu<0w",
"w9mHQLmuu=wq;;O+.Oo+*2azmNNSVmuu<#:nEKmuu2::;mmLmmuu*wpNnNmuu20w",
";:9AHICuu80q;;##*;5zMFLPPFSKmmuu&o*MEGmgu<;;*nmKmmuu&wlmvmNuuo*:",
"--;yAPKmuu2:;*#*2zSUETRILLLSmmuu%o*BEGmuu<;;*cmJmVuu*qzmvmvuto-:",
"###*tKSSuu7=:O#wSUEE!QILLLCmmmyuoo*SELmgu2;;*nmCmmuu*0mmNmgu, ##",
"####*xCCVuu=:#qSEE^!ILLJCNNmmuu7o-2GELmuu<*;#nmVmvutO0mPCmuu&o##",
"#####6VmVuu6-*mTE^YLJCmmmmmmuuy%@;ePTFmuu<*;#mVVCxu7+eCRSmuu$+##",
"###*-emmmcyyO5AE^IKBmNmmmcuudy=#;;lTWSmuu=***mnmmuu<#rJUKmuy&+##",
"::::;pNNmmuu#eLERLVmmmuuuuuu7$@q;qZT!mmuu&**2mvVmugO#iPULmuu,*::",
":::::lNNmmuuOrPWIJmVcuuuy9>o.+:q;lPETmmuu#*#amgmcuto#iPRLCxu9#:-",
"wwwwpBYNmmuu+8PWLJmnuu7%.  o=:wq5FEWCmmuy+O*mPmmuu3o#9URLLCuu<qq",
"wwplFEKBmmuyo6FTLJmku6 .o##*;:wwZEUSmmuu7 *aPAVmuu%o#9UEILKvxyew",
"mBSUEIBmmuu9o3VTILBxu6.####-;pzPEHSmmcuyOo4FEBmvuto+*8ZTQLLLmmNm",
"EEERYZmmvuu<*<uLILLBuy$##;ezSGRTmMmmvuu> *NEKNmuu6 #-2gU~LLLIWTR",
"!QWKmmmmuu9#00ruvILLmmmvBHPUUPCNmVmguu7 ozPEKmmuu%o#;;tmEYLLLIQQ",
"FSCmmmmguy+*ww4uymLLLmNmmmBSSCmmmmguu1 o2CUWSmnuyo+#::9umLKKLLLK",
"mmNmmguutOo;www8yucCJJKKJJCCVmmmguuy<o@:jGRRNmgu1o#*;:wtdgvmmmmm",
"mvcyuuu6. -;;wwwtuuummmmmmmmmmxuuut#o#:0lPWImmuu&+#*;qwwtguuhmmm",
"uuuug9& &amcgteww6uyuuxxvvcxuuygy,O@;qwwkP!LNmuu@##-;qww26duuyyu",
"yt91%o2zAPUEHgg8ww07uuyuuuuuuut1#*:js9w:9SWICmuuo*#-;9ip;;$<7yyu",
"*#**pnDPHP~!Rcyu6w0;#>69tyt63=#*;enSSgy<6mUIJmuu+;#*nPPSc8=**##*",
"welnSTHGUFSLLKuuy;:::*###oo#*:qwlmLEPuut*gIWLmuu&;*;SEEETPVs6eww",
"mmmKTPPCmguvLLSuu6**#####-::0pzmSUEWKmuu%9VTKCgu7*-&mE/^WPTPSmmm",
"mNNRPNmmuuggmLKvuuO######*ezNSSPUYILLVgu7<gTIKmug%;#cE~RLLLSSVmm",
"LLJCmmmuut=tMCLCuu,O***-rVFUPGFJSBLLLSmuu#tLLLCug7-*9TWLLSCJKLLL",
"KCmmmvyut.o1mmLSxuy.-;:jSTTPLCVmngCKLJmuu&6mPLKmuy=:1STLSCmmmCLL",
"VmVmvuut.o;wmmLSVuu%;:wCT!RCVVguuugVLJmuu1;xTKLCuu8=:cRJCVmuuuvC",
"mmvuuu9. &;wmmLKVuu2-qlKTRCmmuuuy6smCKmgu9;rSSLJmuy=:sLCSmuuuuuu",
"uuuuy,  *;:wmmILmxu7-wcTYLCmxuu* .2mmKmcut-6mmLKmuu1qrCmLmuu26uu",
"uuu6O o#*:qwmmLLBvut-wnPKLmmuu,.*;jmCKVnyy-qmVLLmxu9;eCmLJuu900t",
"**.oX@##::wwmmKLmmuu#wmKKKVmuu**;:bVCLVvuy*wmmLLmmuy-wmmLLmuu6wq",
"wq;;####;:wwnmKKmMuu*wVCLKmmuu*qwqvCLLmVuy*qVmKKmmuy*wmmLLVxuy;w"
};
